<svg width="289" height="344" viewBox="0 0 289 344" fill="none" xmlns="http://www.w3.org/2000/svg">
<path d="M127.61 148.11V120.351C127.61 118.142 129.401 116.351 131.61 116.351H157.39C159.599 116.351 161.39 118.141 161.39 120.351V148.11C161.39 151.891 166.151 153.561 168.513 150.609L183.033 132.459C183.6 131.75 183.909 130.869 183.909 129.961V94.0779C183.909 91.8688 182.118 90.0779 179.909 90.0779H109.091C106.882 90.0779 105.091 91.8688 105.091 94.0779V129.96C105.091 130.869 105.4 131.75 105.967 132.459L120.487 150.609C122.849 153.561 127.61 151.891 127.61 148.11Z" fill="url(#paint0_linear_5_60)"/>
<path d="M79.7917 227.356L67.1489 217.012C66.2203 216.252 65.6818 215.116 65.6818 213.916V101.068C65.6818 100.037 65.2834 99.0453 64.5698 98.3006L29.4074 61.6095C26.9133 59.0069 22.5195 60.7723 22.5195 64.3771V230.25C22.5195 231.754 23.3882 233.143 24.7271 233.829C94.1043 269.353 128.933 295.787 141.021 307.741C142.881 309.579 146.065 309.518 147.914 307.669C167.094 288.485 231.019 251.799 264.397 233.821C265.695 233.121 266.481 231.781 266.481 230.306V64.3771C266.481 60.7723 262.087 59.0069 259.593 61.6095L224.43 98.3006C223.717 99.0453 223.318 100.037 223.318 101.068V213.916C223.318 215.116 222.78 216.252 221.851 217.012L209.208 227.356C206.597 229.493 202.675 227.635 202.675 224.26V87.9815C202.675 86.9207 203.097 85.9032 203.847 85.1531L282.172 6.82843C284.691 4.30857 289 6.09325 289 9.65687V244.415C289 245.956 288.088 247.372 286.699 248.04C203.902 287.862 163.177 321.246 148.963 337.579C146.88 339.973 142.454 339.793 140.405 337.369C119.942 313.165 42.9404 269.402 2.11882 248.042C0.796843 247.35 0 246.001 0 244.509V9.65685C0 6.09323 4.30857 4.30857 6.82843 6.82843L85.1531 85.1531C85.9033 85.9032 86.3247 86.9207 86.3247 87.9815V224.26C86.3247 227.635 82.4034 229.493 79.7917 227.356Z" fill="url(#paint1_linear_5_60)"/>
<defs>
<linearGradient id="paint0_linear_5_60" x1="88.9231" y1="70.3974" x2="208.413" y2="192.667" gradientUnits="userSpaceOnUse">
<stop stop-color="#CF0059"/>
<stop offset="0.973958" stop-color="#CF0059"/>
<stop offset="1" stop-color="#FF0044" stop-opacity="0"/>
</linearGradient>
<linearGradient id="paint1_linear_5_60" x1="9.26283" y1="24.0833" x2="326.051" y2="340.872" gradientUnits="userSpaceOnUse">
<stop stop-color="#CF0059"/>
<stop offset="1" stop-color="#CF0059"/>
</linearGradient>
</defs>
</svg>
