<svg width="724" height="679" viewBox="0 0 724 679" fill="none" xmlns="http://www.w3.org/2000/svg">
<rect width="724" height="679" fill="url(#paint0_linear_79_311)"/>
<path d="M198.378 331.39C200.098 328.87 202.455 326.822 205.45 325.247C208.507 323.672 211.979 322.885 215.866 322.885C220.389 322.885 224.466 323.987 228.097 326.192C231.792 328.397 234.691 331.547 236.793 335.642C238.959 339.674 240.042 344.368 240.042 349.723C240.042 355.078 238.959 359.834 236.793 363.992C234.691 368.087 231.792 371.269 228.097 373.537C224.466 375.805 220.389 376.939 215.866 376.939C211.916 376.939 208.444 376.182 205.45 374.671C202.519 373.095 200.162 371.079 198.378 368.622V376.088H185V306.158H198.378V331.39ZM226.377 349.723C226.377 346.573 225.708 343.863 224.37 341.595C223.096 339.264 221.376 337.5 219.21 336.303C217.119 335.109 214.744 334.49 212.33 334.508C209.909 334.508 207.616 335.138 205.45 336.398C203.347 337.595 201.627 339.359 200.289 341.69C199.015 344.021 198.378 346.762 198.378 349.912C198.378 353.062 199.015 355.802 200.289 358.133C201.627 360.464 203.347 362.26 205.45 363.52C207.616 364.717 209.909 365.315 212.33 365.315C214.814 365.315 217.108 364.685 219.21 363.425C221.376 362.165 223.096 360.369 224.37 358.038C225.708 355.707 226.377 352.936 226.377 349.723ZM256.547 317.498C254.19 317.498 252.215 316.774 250.622 315.325C249.093 313.813 248.329 311.954 248.329 309.749C248.329 307.544 249.093 305.717 250.622 304.268C252.215 302.756 254.19 302 256.547 302C258.904 302 260.847 302.756 262.376 304.268C263.969 305.717 264.765 307.544 264.765 309.749C264.765 311.954 263.969 313.813 262.376 315.325C260.847 316.774 258.904 317.498 256.547 317.498ZM263.141 323.735V376.088H249.762V323.735H263.141ZM307.703 376.088L289.738 353.786V376.088H276.36V306.158H289.738V345.942L307.512 323.735H324.903L301.587 350.006L325.095 376.088H307.703ZM326.069 349.912C326.069 344.494 327.184 339.769 329.413 335.737C331.643 331.642 334.733 328.491 338.682 326.286C342.632 324.018 347.155 322.885 352.252 322.885C358.814 322.885 364.229 324.523 368.497 327.799C372.829 331.012 375.727 335.547 377.193 341.406H362.766C362.001 339.138 360.696 337.375 358.848 336.115C357.064 334.792 354.835 334.13 352.159 334.13C348.337 334.13 345.311 335.516 343.081 338.288C340.851 340.997 339.736 344.872 339.736 349.912C339.736 354.889 340.851 358.763 343.081 361.535C345.311 364.244 348.337 365.599 352.159 365.599C357.574 365.599 361.11 363.205 362.766 358.417H377.195C375.73 364.087 372.831 368.591 368.499 371.93C364.167 375.269 358.752 376.939 352.254 376.939C347.158 376.939 342.635 375.836 338.685 373.631C334.767 371.395 331.557 368.122 329.416 364.181C327.186 360.086 326.071 355.33 326.071 349.912H326.069ZM397.719 331.862C399.36 329.167 401.66 326.925 404.408 325.342C407.211 323.767 410.397 322.979 413.964 322.979V336.871H410.429C406.224 336.871 403.039 337.847 400.873 339.8C398.77 341.753 397.719 345.155 397.719 350.006V376.088H384.341V323.735H397.719V331.862ZM454.986 368.622C453.52 371.016 451.131 373.033 447.819 374.671C444.506 376.246 440.938 377.033 437.116 377.033C433.803 377.033 430.809 376.371 428.134 375.048C425.458 373.725 423.356 371.898 421.827 369.567C420.298 367.236 419.533 364.559 419.533 361.535C419.533 356.684 421.349 352.715 424.98 349.628C428.675 346.541 434.186 344.997 441.512 344.997H454.986C454.858 341.658 453.871 339.012 452.023 337.059C450.239 335.043 447.755 334.036 444.57 334.036C441.767 334.036 439.441 334.791 437.594 336.303C435.746 337.752 434.568 339.8 434.058 342.446H420.68C421.317 338.666 422.687 335.295 424.789 332.334C426.936 329.326 429.833 326.917 433.198 325.342C436.702 323.641 440.62 322.79 444.952 322.79C449.411 322.79 453.425 323.703 456.992 325.53C460.536 327.276 463.49 330.001 465.497 333.374C467.536 336.776 468.555 340.777 468.555 345.376V376.088H454.986V368.622ZM441.034 366.355C443.264 366.355 445.43 365.882 447.532 364.937C449.698 363.992 451.482 362.575 452.883 360.685C454.285 358.795 454.986 356.558 454.986 353.975V353.597H442.276C439.218 353.597 436.925 354.196 435.396 355.393C433.931 356.59 433.198 358.164 433.198 360.117C433.198 362.007 433.867 363.52 435.205 364.654C436.606 365.788 438.549 366.355 441.034 366.355ZM496.769 334.603V376.088H483.199V334.603H477.179V323.735H483.199V321.089C483.199 314.663 485.047 309.938 488.742 306.914C492.437 303.89 498.011 302.473 505.464 302.662V313.812C502.215 313.749 499.954 314.285 498.68 315.419C497.406 316.553 496.769 318.6 496.769 321.561V323.735H514.155V310.789H527.629V323.735H539.478V334.603H527.629V359.929C527.629 361.693 528.043 362.984 528.871 363.803C529.763 364.559 531.228 364.937 533.267 364.937H539.478V376.088H531.069C519.793 376.088 514.155 370.67 514.155 359.834V334.603H496.769Z" fill="white"/>
<defs>
<linearGradient id="paint0_linear_79_311" x1="10" y1="302" x2="710.5" y2="300" gradientUnits="userSpaceOnUse">
<stop stop-color="#414141"/>
<stop offset="1"/>
</linearGradient>
</defs>
</svg>
